<svg id="Layer_1" enable-background="new 0 0 500 500" viewBox="0 0 500 500" xmlns="http://www.w3.org/2000/svg"><path clip-rule="evenodd" d="m49.571 150.465v87.249c0 .537-.438.974-.974.974h-32.506c-3.499 0-6.335 2.837-6.335 6.335s2.836 6.335 6.335 6.335h39.814c3.499 0 6.335-2.836 6.335-6.335v-12.598c0-.537.438-.974.974-.974h373.569c.537 0 .974.438.974.974v12.598c0 3.499 2.836 6.335 6.335 6.335h39.814c3.499 0 6.335-2.836 6.335-6.335s-2.836-6.335-6.335-6.335h-32.505c-.537 0-.974-.438-.974-.974v-87.249c0-3.499-2.836-6.335-6.335-6.335-129.396 0-258.792 0-388.188 0-3.497 0-6.333 2.836-6.333 6.335zm328.78 93.105c-.066-.298 0-.583.191-.821s.454-.365.76-.365h31.244c.44 0 .813.28.936.703l50.428 173.519c.088.304.034.604-.156.857s-.463.389-.779.389h-43.11c-.462 0-.851-.312-.951-.763zm-121.06 82.91c-.537 0-.974-.438-.974-.974l-.003-82.147c0-.537.438-.974.974-.974h107.089c.462 0 .851.312.951.763l18.263 82.177c.066.298 0 .583-.191.821-.192.238-.454.365-.76.365zm128.588 12.652-271.743-.065c-.462 0-.851.312-.951.763l-17.076 76.837c-.066.298 0 .583.191.821s.454.365.76.365h305.88c.306 0 .569-.126.76-.365.191-.238.257-.523.191-.821l-17.061-76.772c-.101-.451-.489-.763-.951-.763zm-268.506-12.685c-.306 0-.568-.126-.76-.365-.191-.238-.257-.523-.191-.821l18.248-82.114c.1-.451.489-.763.951-.763h107.099c.537 0 .974.438.974.974l.003 82.144c0 .537-.438.974-.975.974zm-34.286 90.642c-.1.451-.489.763-.951.763h-43.111c-.317 0-.589-.136-.779-.389s-.245-.553-.156-.857l50.428-173.519c.123-.423.496-.703.936-.703h31.245c.306 0 .569.126.76.365.191.238.257.523.191.821zm259.654-333.755 10.912 49.099c.1.451.489.763.951.763h23.645c.317 0 .589-.136.779-.389s.245-.553.156-.857l-14.269-49.1c-.123-.423-.496-.703-.936-.703h-20.287c-.306 0-.569.126-.76.365-.192.239-.258.523-.191.822zm-86.431 36.612.001 12.276c0 .537.438.974.974.974h82.394c.306 0 .569-.126.76-.365.192-.238.258-.523.191-.821l-2.772-12.474c-.1-.452-.491-.764-.953-.763l-79.622.198c-.536.002-.973.44-.973.975zm-13.597-.938-79.719.199c-.461.001-.849.313-.949.763l-2.676 12.041c-.066.298 0 .583.191.821s.454.365.76.365h82.395c.537 0 .974-.438.974-.974l-.001-12.239c0-.269-.096-.5-.286-.69-.189-.191-.42-.287-.689-.286zm-72.432-36.097-4.996 22.481c-.066.299 0 .584.192.822.192.239.456.365.762.364l167.434-.417c.305-.001.568-.127.758-.365.191-.238.257-.522.191-.82l-4.904-22.064c-.1-.451-.489-.763-.951-.763h-157.535c-.461-.001-.85.311-.951.762zm-35.196-.06-14.269 49.1c-.088.304-.034.604.156.857s.463.389.779.389h23.645c.462 0 .851-.312.951-.763l10.912-49.099c.066-.298 0-.583-.191-.821s-.454-.365-.76-.365h-20.287c-.44-.001-.813.279-.936.702zm-44.342 98.833c-3.499 0-6.335-2.836-6.335-6.335s2.836-6.335 6.335-6.335h19.907c3.499 0 6.335 2.837 6.335 6.335s-2.836 6.335-6.335 6.335zm172.829 18.548c0-3.499 2.837-6.335 6.335-6.335h19.907c3.499 0 6.335 2.836 6.335 6.335s-2.837 6.335-6.335 6.335h-19.907c-3.499 0-6.335-2.836-6.335-6.335zm59.721 0c0-3.499 2.836-6.335 6.335-6.335h19.907c3.499 0 6.335 2.836 6.335 6.335s-2.836 6.335-6.335 6.335h-19.907c-3.499 0-6.335-2.836-6.335-6.335zm66.056 6.335c-3.499 0-6.335-2.837-6.335-6.335s2.836-6.335 6.335-6.335h19.907c3.499 0 6.335 2.836 6.335 6.335s-2.837 6.335-6.335 6.335zm-238.884-24.883c-3.499 0-6.335-2.836-6.335-6.335s2.837-6.335 6.335-6.335h19.907c3.499 0 6.335 2.837 6.335 6.335s-2.837 6.335-6.335 6.335zm59.721 0c-3.499 0-6.335-2.836-6.335-6.335s2.836-6.335 6.335-6.335h19.907c3.499 0 6.335 2.837 6.335 6.335s-2.836 6.335-6.335 6.335zm59.721 0c-3.499 0-6.335-2.836-6.335-6.335s2.837-6.335 6.335-6.335h19.907c3.499 0 6.335 2.837 6.335 6.335s-2.837 6.335-6.335 6.335zm59.721 0c-3.499 0-6.335-2.836-6.335-6.335s2.836-6.335 6.335-6.335h19.907c3.499 0 6.335 2.837 6.335 6.335s-2.836 6.335-6.335 6.335zm59.721 0c-3.499 0-6.335-2.836-6.335-6.335s2.836-6.335 6.335-6.335h19.907c3.499 0 6.335 2.837 6.335 6.335s-2.837 6.335-6.335 6.335zm-238.884 12.213h19.907c3.499 0 6.335 2.836 6.335 6.335s-2.837 6.335-6.335 6.335h-19.907c-3.499 0-6.335-2.837-6.335-6.335s2.836-6.335 6.335-6.335zm59.721 12.67c-3.499 0-6.335-2.837-6.335-6.335s2.836-6.335 6.335-6.335h19.907c3.499 0 6.335 2.836 6.335 6.335s-2.836 6.335-6.335 6.335zm-119.443 0c-3.499 0-6.335-2.837-6.335-6.335s2.836-6.335 6.335-6.335h19.907c3.499 0 6.335 2.836 6.335 6.335s-2.836 6.335-6.335 6.335z" fill-rule="evenodd"/></svg>