<svg height="512" viewBox="0 0 56 41" width="512" xmlns="http://www.w3.org/2000/svg"><g id="Page-1" fill="none" fill-rule="evenodd"><g id="018---Court" fill="rgb(0,0,0)" fill-rule="nonzero"><path id="Shape" d="m27 21v11h-15.171l3.071-11zm14.1 0 3.07 11h-15.17v-11zm-29.829 13h33.458l1.954 7h-37.366zm37.488 7-5.582-20h5.123l6.784 18.658c.111539.3064711.0666207.6480792-.1203532.9152987-.186974.2672194-.4925097.426473-.8186468.4267013zm-8.189-40.367 3.701 9.367h-4.163l-2.791-10h2.323c.4105475.00009071.7793291.25110009.93.633zm-22.603 9.367 1.4-5h7.633v5zm17.274-10 .838 3h-16.158l.838-3zm-6.241 5h7.637l1.4 5h-9.037zm-12.639-5h2.322l-2.791 10h-4.162l3.7-9.367c.1508048-.38223951.5200876-.63332008.931-.633zm-10.361 13c0-.5522847.44771525-1 1-1h42c.5522847 0 1 .4477153 1 1v5c0 .5522847-.4477153 1-1 1h-42c-.55228475 0-1-.4477153-1-1zm1.7 8h5.123l-5.582 20h-5.386c-.32613715-.0002283-.63167281-.1594819-.81864677-.4267013-.18697396-.2672195-.23189224-.6088276-.12035323-.9152987z"/></g></g></svg>