<?xml version="1.0" encoding="UTF-8"?>
<svg id="Layer_2" data-name="Layer 2" xmlns="http://www.w3.org/2000/svg" viewBox="0 0 555.43 134.85">
  <defs>
    <style>
      .cls-1 {
        fill: #231f20;
      }

      .cls-2 {
        fill: #fed402;
      }

      .cls-3 {
        fill: #62bb46;
      }
    </style>
  </defs>
  <g id="Layer_1-2" data-name="Layer 1">
    <path class="cls-1" d="M57.44,0H15.72C7.04,0,0,7.04,0,15.72v101.73c0,9.31,7.55,16.86,16.86,16.86s16.86-7.55,16.86-16.86v-22h23.72c26.36,0,47.72-21.37,47.72-47.73S83.8,0,57.44,0ZM56.87,62.87h-23.15v-31.44h23.15c8.68,0,15.72,7.04,15.72,15.72s-7.04,15.72-15.72,15.72Z"/>
    <path class="cls-1" d="M320.97,19.67C308.82,7.52,292.04,0,273.49,0h-31.15c-8.21,0-14.86,6.65-14.86,14.86v104.59c0,8.21,6.65,14.86,14.86,14.86h31.15c37.09,0,67.15-30.06,67.15-67.15,0-18.54-7.52-35.34-19.67-47.49ZM273.58,107.34c-22.67.01-40.67-17.91-40.66-40.48.01-22.08,18.03-40.28,40.04-40.45,22.59-.18,40.87,18.09,40.84,40.81-.04,22.11-18.08,40.11-40.22,40.12ZM295.18,40.83c-6.57-1.91-12.74.76-17.16,6.92-7.69,10.75-20,12.76-30.64,5.03-1.55-1.13-3.1-2.24-4.96-3.57-5.2,9.46-5.95,18.86-3,28.77.58-.17.91-.17,1.05-.33,10.97-12.54,30.44-9.57,37.91,5.03,2.77,5.41,7.92,8.12,13.96,8.73,4.67.48,8.44-.75,11.19-5.2,8.05-13.05,7.22-30.28-2.62-41.79-1.41-1.65-3.63-2.98-5.73-3.59ZM272.49,82.64c-6.53-10.49-21.59-10.93-28.71-1.18-.78,1.07-1.13,3.3-.55,4.38,8.9,16.52,33.95,22.08,49.78,10.58-9.62-1.12-15.75-6.12-20.52-13.78ZM272.53,46.89c4.28-5.75,9.14-10.19,16.68-11.41-12.85-8.52-35.12-3.48-43.82,9.9,2.49,1.76,4.87,3.75,7.53,5.25,6.7,3.78,15,2.44,19.61-3.74Z"/>
    <path class="cls-1" d="M433.79,102.28h-54.43v-19.38h44.83c8.85,0,16.02-7.17,16.02-16.02s-7.17-16.02-16.02-16.02h-44.83v-18.84h54.43c8.84,0,16.02-7.17,16.02-16.02s-7.17-16.02-16.02-16.02h-68.07c-9.26,0-16.77,7.51-16.77,16.77v100.78c0,9.26,7.51,16.77,16.77,16.77h68.07c8.84,0,16.02-7.17,16.02-16.02s-7.17-16.02-16.02-16.02Z"/>
    <path class="cls-1" d="M539.43,102.31h-47.69V15.84c0-8.75-7.09-15.84-15.84-15.84s-15.84,7.09-15.84,15.84v105.23c0,7.31,5.93,13.23,13.24,13.23h66.15c8.84,0,16-7.17,16-16s-7.17-16.01-16-16.01Z"/>
    <path class="cls-1" d="M149.77,20.07v30.8s-.79,9.42-9.51,16c-8.72,6.58-25.1,19.46-15.07,54.61v.07s-4.58,16.43-21.15,12.76c-18.24-4.04-8.72-24.65-8.72-24.65L138.13,9.83c2.56-5.96,8.42-9.83,14.91-9.83h5.81c6.5,0,12.37,3.88,14.92,9.86v-.03l42.83,99.83s9.51,20.61-8.72,24.65c-16.57,3.67-21.14-12.76-21.14-12.76,10.03-35.15-6.33-48.1-15.05-54.68-8.72-6.58-9.51-16-9.51-16v-30.8h-12.4Z"/>
    <path class="cls-2" d="M138.87,87.69c0,1.02-.83,1.85-1.85,1.85s-1.85-.83-1.85-1.85.83-1.85,1.85-1.85,1.85.83,1.85,1.85Z"/>
    <path class="cls-2" d="M146.43,87.69c0,1.02-.83,1.85-1.85,1.85s-1.85-.83-1.85-1.85.83-1.85,1.85-1.85,1.85.83,1.85,1.85Z"/>
    <path class="cls-2" d="M153.85,87.69c0,1.02-.83,1.85-1.85,1.85s-1.85-.83-1.85-1.85.83-1.85,1.85-1.85,1.85.83,1.85,1.85Z"/>
    <path class="cls-2" d="M161.26,87.69c0,1.02-.83,1.85-1.85,1.85s-1.85-.83-1.85-1.85.83-1.85,1.85-1.85,1.85.83,1.85,1.85Z"/>
    <path class="cls-2" d="M168.67,87.69c0,1.02-.83,1.85-1.85,1.85s-1.85-.83-1.85-1.85.83-1.85,1.85-1.85,1.85.83,1.85,1.85Z"/>
    <path class="cls-2" d="M146.43,80.13c0,1.02-.83,1.85-1.85,1.85s-1.85-.83-1.85-1.85.83-1.85,1.85-1.85,1.85.83,1.85,1.85Z"/>
    <path class="cls-2" d="M153.85,80.13c0,1.02-.83,1.85-1.85,1.85s-1.85-.83-1.85-1.85.83-1.85,1.85-1.85,1.85.83,1.85,1.85Z"/>
    <path class="cls-2" d="M161.26,80.13c0,1.02-.83,1.85-1.85,1.85s-1.85-.83-1.85-1.85.83-1.85,1.85-1.85,1.85.83,1.85,1.85Z"/>
    <path class="cls-2" d="M168.67,80.13c0,1.02-.83,1.85-1.85,1.85s-1.85-.83-1.85-1.85.83-1.85,1.85-1.85,1.85.83,1.85,1.85Z"/>
    <path class="cls-2" d="M176.08,87.69c0,1.02-.83,1.85-1.85,1.85s-1.85-.83-1.85-1.85.83-1.85,1.85-1.85,1.85.83,1.85,1.85Z"/>
    <path class="cls-2" d="M138.87,95.25c0,1.02-.83,1.85-1.85,1.85s-1.85-.83-1.85-1.85.83-1.85,1.85-1.85,1.85.83,1.85,1.85Z"/>
    <path class="cls-2" d="M146.43,95.25c0,1.02-.83,1.85-1.85,1.85s-1.85-.83-1.85-1.85.83-1.85,1.85-1.85,1.85.83,1.85,1.85Z"/>
    <path class="cls-2" d="M153.85,95.25c0,1.02-.83,1.85-1.85,1.85s-1.85-.83-1.85-1.85.83-1.85,1.85-1.85,1.85.83,1.85,1.85Z"/>
    <path class="cls-2" d="M161.26,95.25c0,1.02-.83,1.85-1.85,1.85s-1.85-.83-1.85-1.85.83-1.85,1.85-1.85,1.85.83,1.85,1.85Z"/>
    <path class="cls-2" d="M168.67,95.25c0,1.02-.83,1.85-1.85,1.85s-1.85-.83-1.85-1.85.83-1.85,1.85-1.85,1.85.83,1.85,1.85Z"/>
    <path class="cls-2" d="M176.08,95.25c0,1.02-.83,1.85-1.85,1.85s-1.85-.83-1.85-1.85.83-1.85,1.85-1.85,1.85.83,1.85,1.85Z"/>
    <path class="cls-2" d="M138.87,102.8c0,1.02-.83,1.85-1.85,1.85s-1.85-.83-1.85-1.85.83-1.85,1.85-1.85,1.85.83,1.85,1.85Z"/>
    <path class="cls-2" d="M146.43,102.8c0,1.02-.83,1.85-1.85,1.85s-1.85-.83-1.85-1.85.83-1.85,1.85-1.85,1.85.83,1.85,1.85Z"/>
    <path class="cls-2" d="M153.85,102.8c0,1.02-.83,1.85-1.85,1.85s-1.85-.83-1.85-1.85.83-1.85,1.85-1.85,1.85.83,1.85,1.85Z"/>
    <path class="cls-2" d="M161.26,102.8c0,1.02-.83,1.85-1.85,1.85s-1.85-.83-1.85-1.85.83-1.85,1.85-1.85,1.85.83,1.85,1.85Z"/>
    <path class="cls-2" d="M168.67,102.8c0,1.02-.83,1.85-1.85,1.85s-1.85-.83-1.85-1.85.83-1.85,1.85-1.85,1.85.83,1.85,1.85Z"/>
    <path class="cls-2" d="M176.08,102.8c0,1.02-.83,1.85-1.85,1.85s-1.85-.83-1.85-1.85.83-1.85,1.85-1.85,1.85.83,1.85,1.85Z"/>
    <circle class="cls-2" cx="137.02" cy="110.35" r="1.85"/>
    <circle class="cls-2" cx="144.58" cy="110.35" r="1.85"/>
    <circle class="cls-2" cx="151.99" cy="110.35" r="1.85"/>
    <circle class="cls-2" cx="159.41" cy="110.35" r="1.85"/>
    <circle class="cls-2" cx="166.82" cy="110.35" r="1.85"/>
    <path class="cls-2" d="M176.08,110.35c0,1.02-.83,1.85-1.85,1.85s-1.85-.83-1.85-1.85.83-1.85,1.85-1.85,1.85.83,1.85,1.85Z"/>
    <circle class="cls-2" cx="144.58" cy="117.9" r="1.85"/>
    <circle class="cls-2" cx="151.99" cy="117.9" r="1.85"/>
    <circle class="cls-2" cx="159.41" cy="117.9" r="1.85"/>
    <circle class="cls-2" cx="166.82" cy="117.9" r="1.85"/>
    <path class="cls-3" d="M252.92,50.63c-2.66-1.5-5.04-3.49-7.53-5.25,8.7-13.38,30.97-18.42,43.82-9.9-7.54,1.22-12.4,5.66-16.68,11.41-4.61,6.18-12.91,7.52-19.61,3.74Z"/>
    <path class="cls-3" d="M293.01,96.42c-15.83,11.5-40.88,5.94-49.78-10.58-.58-1.08-.23-3.31.55-4.38,7.12-9.75,22.18-9.31,28.71,1.18,4.77,7.66,10.9,12.66,20.52,13.78Z"/>
    <path class="cls-3" d="M303.53,86.21c-2.75,4.45-6.52,5.68-11.19,5.2-6.04-.61-11.19-3.32-13.96-8.73-7.47-14.6-26.94-17.57-37.91-5.03-.14.16-.47.16-1.05.33-2.95-9.91-2.2-19.31,3-28.77,1.86,1.33,3.41,2.44,4.96,3.57,10.64,7.73,22.95,5.72,30.64-5.03,4.42-6.16,10.59-8.83,17.16-6.92,2.1.61,4.32,1.94,5.73,3.59,9.84,11.51,10.67,28.74,2.62,41.79Z"/>
  </g>
</svg>